HIERARCHY
ROOT Hips
{
	OFFSET -0.001795 -0.223333 0.028219
	CHANNELS 6 Xposition Yposition Zposition Zrotation Yrotation Xrotation 
	JOINT LeftUpLeg
	{
		OFFSET 0.069520 -0.091406 -0.006815
		CHANNELS 3 Zrotation Yrotation Xrotation
		JOINT LeftLeg
		{
			OFFSET 0.034277 -0.375199 -0.004496
			CHANNELS 3 Zrotation Yrotation Xrotation
			JOINT LeftFoot
			{
				OFFSET -0.013596 -0.397961 -0.043693
				CHANNELS 3 Zrotation Yrotation Xrotation
				JOINT LeftToe
				{
					OFFSET 0.026358 -0.055791 0.119288
					CHANNELS 3 Zrotation Yrotation Xrotation
					End Site
					{
						OFFSET 0.000000 0.000000 0.000000
					}
				}
			}
		}
	}
	JOINT RightUpLeg
	{
		OFFSET -0.067670 -0.090522 -0.004320
		CHANNELS 3 Zrotation Yrotation Xrotation
		JOINT RightLeg
		{
			OFFSET -0.038290 -0.382569 -0.008850
			CHANNELS 3 Zrotation Yrotation Xrotation
			JOINT RightFoot
			{
				OFFSET 0.015774 -0.398415 -0.042312
				CHANNELS 3 Zrotation Yrotation Xrotation
				JOINT RightToe
				{
					OFFSET -0.025372 -0.048144 0.123348
					CHANNELS 3 Zrotation Yrotation Xrotation
					End Site
					{
						OFFSET 0.000000 0.000000 0.000000
					}
				}
			}
		}
	}
	JOINT Spine
	{
		OFFSET -0.002533 0.108963 -0.026696
		CHANNELS 3 Zrotation Yrotation Xrotation
		JOINT Spine1
		{
			OFFSET 0.005487 0.135180 0.001092
			CHANNELS 3 Zrotation Yrotation Xrotation
			JOINT Spine2
			{
				OFFSET 0.001457 0.052922 0.025425
				CHANNELS 3 Zrotation Yrotation Xrotation
				JOINT Neck
				{
					OFFSET -0.002778 0.213870 -0.042857
					CHANNELS 3 Zrotation Yrotation Xrotation
					JOINT Head
					{
						OFFSET 0.005152 0.064970 0.051349
						CHANNELS 3 Zrotation Yrotation Xrotation
						End Site
						{
							OFFSET 0.000000 0.000000 0.000000
						}
					}
				}
				JOINT LeftShoulder
				{
					OFFSET 0.078845 0.121749 -0.034090
					CHANNELS 3 Zrotation Yrotation Xrotation
					JOINT LeftArm
					{
						OFFSET 0.090977 0.030469 -0.008868
						CHANNELS 3 Zrotation Yrotation Xrotation
						JOINT LeftForeArm
						{
							OFFSET 0.259612 -0.012772 -0.027456
							CHANNELS 3 Zrotation Yrotation Xrotation
							JOINT LeftHand
							{
								OFFSET 0.249234 0.008986 -0.001171
								CHANNELS 3 Zrotation Yrotation Xrotation
								End Site
								{
									OFFSET 0.000000 0.000000 0.000000
								}
							}
						}
					}
				}
				JOINT RightShoulder
				{
					OFFSET -0.081759 0.118833 -0.038615
					CHANNELS 3 Zrotation Yrotation Xrotation
					JOINT RightArm
					{
						OFFSET -0.096012 0.032551 -0.009143
						CHANNELS 3 Zrotation Yrotation Xrotation
						JOINT RightForeArm
						{
							OFFSET -0.253742 -0.013329 -0.021401
							CHANNELS 3 Zrotation Yrotation Xrotation
							JOINT RightHand
							{
								OFFSET -0.255298 0.007772 -0.005559
								CHANNELS 3 Zrotation Yrotation Xrotation
								End Site
								{
									OFFSET 0.000000 0.000000 0.000000
								}
							}
						}
					}
				}
			}
		}
	}
}
MOTION
Frames: 15
Frame Time: 0.050000
0.136946 0.942585 0.044425 -0.950103 -3.997032 2.500255 11.608135 0.055816 -10.233502 -5.493042 0.898511 11.366112 8.019705 17.122260 13.528300 0.000000 0.000000 0.000000 -8.619329 0.454803 -4.638140 4.090463 -0.352374 5.523626 -7.920821 -19.722371 9.015773 0.000000 0.000000 0.000000 6.339323 -0.826096 7.737482 -5.552538 1.854933 -25.230937 -0.244060 11.651285 28.312779 11.953402 -3.558626 -27.949551 0.000000 0.000000 0.000000 -16.901702 -3.170052 -1.335905 -56.286212 -9.124884 -4.876324 1.050787 -38.252732 0.998034 0.000000 0.000000 0.000000 22.590866 -1.523955 0.460202 60.492118 46.252666 17.313287 -49.529206 73.496948 -27.599237 0.000000 0.000000 0.000000 
0.137393 0.942420 0.045604 -0.956972 -3.348076 2.848750 11.671783 0.031738 -10.571444 -5.451495 0.870196 11.439048 7.783474 16.804241 13.105896 0.000000 0.000000 0.000000 -8.844472 0.444911 -4.494410 4.457369 -0.413600 5.708439 -8.364048 -20.521857 9.329390 0.000000 0.000000 0.000000 6.042812 -0.826403 7.872197 -5.404563 1.819524 -25.447578 -0.038491 11.853237 27.975507 11.949859 -3.236157 -29.075312 0.000000 0.000000 0.000000 -16.971359 -2.901943 -1.653876 -56.612634 -8.650267 -5.069133 0.353418 -36.898787 1.110510 0.000000 0.000000 0.000000 23.773313 -1.363390 0.780765 60.166091 45.059241 16.312705 -39.022955 70.503363 -18.360857 0.000000 0.000000 0.000000 
0.137989 0.941874 0.046935 -0.929234 -2.812710 2.977981 11.854943 0.027621 -10.859106 -5.490496 0.874009 11.969613 7.340645 16.154223 12.772981 0.000000 0.000000 0.000000 -8.917000 0.433871 -4.425272 4.843383 -0.478858 5.875083 -8.960063 -21.592279 9.308672 0.000000 0.000000 0.000000 5.824870 -0.833061 8.085175 -5.380186 1.812410 -25.810468 0.370541 12.338231 28.227091 12.059334 -3.095081 -29.475421 0.000000 0.000000 0.000000 -17.417046 -2.722693 -2.035634 -56.248033 -8.340508 -5.140422 0.189327 -36.225382 1.047863 0.000000 0.000000 0.000000 24.781749 -1.791833 0.828515 59.499668 42.680445 14.380841 -32.585059 68.823721 -13.070501 0.000000 0.000000 0.000000 
0.138674 0.941105 0.048897 -0.774840 -1.943085 3.281685 11.709990 -0.023882 -11.201092 -5.385446 0.826589 12.233017 7.072598 15.781305 12.265029 0.000000 0.000000 0.000000 -9.172879 0.422105 -4.519953 5.081262 -0.530617 6.198469 -9.330713 -22.242299 9.455102 0.000000 0.000000 0.000000 5.682974 -0.835174 8.119241 -5.317442 1.805450 -25.936125 0.504115 12.454359 27.990543 11.545405 -2.582265 -30.048846 0.000000 0.000000 0.000000 -17.855902 -2.523705 -2.413379 -56.124389 -7.580055 -5.384807 0.075172 -35.665796 0.980710 0.000000 0.000000 0.000000 26.022415 -2.459882 0.667773 58.935701 39.348608 12.001768 -23.327756 67.878969 -6.536444 0.000000 0.000000 0.000000 
0.139420 0.940345 0.051811 -0.560719 -0.874226 3.430581 11.520852 -0.081051 -11.692166 -5.087428 0.740293 13.311995 6.420565 14.771821 11.386350 0.000000 0.000000 0.000000 -9.271373 0.396927 -4.427490 5.030258 -0.543922 6.553697 -9.967530 -23.373581 9.460958 0.000000 0.000000 0.000000 5.466449 -0.814210 7.993075 -5.438621 1.840834 -25.917685 0.562005 12.679115 28.042010 11.200896 -2.343850 -29.464196 0.000000 0.000000 0.000000 -18.893916 -2.583787 -2.852240 -55.130416 -6.779485 -5.509127 0.457395 -35.537029 0.739974 0.000000 0.000000 0.000000 27.337106 -3.094761 0.626220 57.210575 35.441333 8.944285 -15.445624 66.441246 -1.175305 0.000000 0.000000 0.000000 
0.140106 0.939605 0.055730 -0.330793 0.031752 3.674831 11.152225 -0.153334 -11.848784 -4.838243 0.649784 13.258637 6.071758 14.311285 11.526996 0.000000 0.000000 0.000000 -9.632227 0.377076 -4.450346 5.070671 -0.570780 7.011471 -10.250111 -23.846775 9.761051 0.000000 0.000000 0.000000 5.335126 -0.781818 7.654052 -5.401143 1.849868 -25.559958 0.439382 13.044109 27.601050 11.087990 -2.054738 -29.792722 0.000000 0.000000 0.000000 -19.320544 -2.487663 -3.295851 -55.151749 -5.617770 -5.883032 0.374832 -34.591520 0.627625 0.000000 0.000000 0.000000 28.546803 -4.336989 0.135798 56.863988 30.651284 6.106163 -7.667861 62.585106 3.552261 0.000000 0.000000 0.000000 
0.140734 0.939139 0.060175 -0.189634 1.212057 3.802042 10.722276 -0.235653 -12.015586 -4.452408 0.522075 13.595254 5.666070 13.716869 11.120773 0.000000 0.000000 0.000000 -9.611816 0.345581 -4.251774 5.051199 -0.592418 7.139502 -10.683731 -24.569859 10.090056 0.000000 0.000000 0.000000 5.339768 -0.750963 7.211435 -5.752051 1.946199 -25.399007 0.615812 12.975866 27.694721 10.540301 -1.681287 -29.552498 0.000000 0.000000 0.000000 -20.140633 -2.160104 -3.877469 -54.611620 -4.690103 -6.112121 0.982106 -33.618339 0.359134 0.000000 0.000000 0.000000 29.517325 -5.152698 -0.140246 55.999714 25.784003 3.197827 -3.457432 57.038198 5.253160 0.000000 0.000000 0.000000 
0.141114 0.938743 0.064587 0.043905 2.319528 3.963712 10.220120 -0.318356 -12.128001 -4.157705 0.416813 13.676744 5.393892 13.340301 10.870842 0.000000 0.000000 0.000000 -9.738351 0.314580 -4.070448 4.886966 -0.590419 7.559060 -10.827951 -24.811824 10.043678 0.000000 0.000000 0.000000 5.415163 -0.738622 6.921296 -5.709151 1.945679 -25.456298 0.315901 13.232527 27.884529 10.318747 -1.336103 -29.934673 0.000000 0.000000 0.000000 -20.785620 -2.189392 -4.346116 -54.760569 -3.765866 -6.414196 2.564466 -32.217042 -0.197383 0.000000 0.000000 0.000000 29.979921 -6.932605 -1.027664 56.952909 20.057793 0.370974 -1.002594 51.442553 5.797076 0.000000 0.000000 0.000000 
0.141231 0.938543 0.068270 0.147046 3.621596 4.132239 10.071161 -0.379261 -12.291216 -3.843917 0.299513 13.952973 5.251384 13.211945 10.807577 0.000000 0.000000 0.000000 -9.643329 0.285829 -4.213465 4.915489 -0.632983 8.332877 -11.098592 -25.345329 9.586062 0.000000 0.000000 0.000000 5.712810 -0.735910 6.528778 -6.122837 2.063219 -25.074032 0.047535 12.531335 27.724338 9.425578 -0.826835 -29.915573 0.000000 0.000000 0.000000 -21.346530 -1.781599 -4.775224 -54.762153 -3.185075 -6.588965 3.515860 -30.731126 -0.451440 0.000000 0.000000 0.000000 30.276546 -7.840972 -1.634605 58.070585 15.060562 -1.986089 -1.786835 45.713260 4.543507 0.000000 0.000000 0.000000 
0.141012 0.938427 0.070890 0.328988 4.455389 4.146581 10.033554 -0.412077 -12.459512 -3.681756 0.226065 14.572850 5.180144 13.113454 10.508993 0.000000 0.000000 0.000000 -9.546761 0.267437 -4.398127 4.792264 -0.644122 9.445354 -10.995043 -25.287931 8.637787 0.000000 0.000000 0.000000 5.873779 -0.770669 6.711499 -6.251999 2.077060 -25.561896 -0.118121 12.750804 28.202405 9.193567 -0.544810 -30.165038 0.000000 0.000000 0.000000 -21.999420 -2.041327 -5.065617 -54.423226 -2.421247 -6.781645 4.653565 -29.935404 -0.799251 0.000000 0.000000 0.000000 31.026769 -9.053083 -2.196192 58.531063 11.965365 -3.637167 -0.904024 41.080260 4.257328 0.000000 0.000000 0.000000 
0.140529 0.938230 0.072371 0.381800 5.041538 4.241235 10.237359 -0.422425 -12.695922 -3.578781 0.176944 14.874232 5.062547 13.003945 10.669445 0.000000 0.000000 0.000000 -9.367237 0.266645 -4.960284 4.855504 -0.696557 10.851374 -11.068000 -25.561616 7.805154 0.000000 0.000000 0.000000 6.188926 -0.806934 6.754617 -6.324865 2.105259 -25.364440 -0.573807 12.502367 28.017685 9.073122 -0.424579 -30.401632 0.000000 0.000000 0.000000 -22.071121 -2.038918 -5.140330 -54.707471 -2.354495 -6.817145 5.515660 -29.053740 -1.006898 0.000000 0.000000 0.000000 30.922749 -9.421274 -2.444077 59.012748 9.702280 -4.665188 -0.274068 37.693818 3.901050 0.000000 0.000000 0.000000 
0.139732 0.938005 0.073104 0.335686 5.418680 4.333306 10.234793 -0.443286 -13.134584 -3.570576 0.151137 15.387320 5.396951 13.500134 10.293796 0.000000 0.000000 0.000000 -9.062810 0.275175 -5.357944 4.976004 -0.750438 11.640259 -11.013284 -25.574464 7.125617 0.000000 0.000000 0.000000 6.411365 -0.843321 6.879941 -6.376119 2.116155 -25.460886 -0.576390 12.526757 28.223349 8.748186 -0.166908 -30.699707 0.000000 0.000000 0.000000 -22.155605 -2.612907 -4.933805 -54.818775 -2.375258 -6.804239 6.210804 -28.595587 -1.180452 0.000000 0.000000 0.000000 31.023263 -9.484601 -2.378960 59.336403 8.684949 -5.190694 -0.195379 35.773563 3.635388 0.000000 0.000000 0.000000 
0.138537 0.937455 0.073569 0.342978 5.579116 4.602499 10.381672 -0.451312 -13.713642 -3.645848 0.153258 15.884277 5.392759 13.475874 10.109356 0.000000 0.000000 0.000000 -8.820582 0.297992 -6.028666 5.105562 -0.804314 12.465477 -11.034845 -25.740456 6.444656 0.000000 0.000000 0.000000 6.553384 -0.854573 6.801315 -6.442515 2.132559 -25.382985 -0.772791 12.622846 28.033033 8.668302 -0.080074 -30.772548 0.000000 0.000000 0.000000 -21.920980 -3.037392 -4.708568 -54.857923 -2.445364 -6.754730 6.421067 -28.524144 -1.255055 0.000000 0.000000 0.000000 30.728741 -9.531181 -2.355620 59.929803 7.760501 -5.568912 0.640705 34.971152 3.757294 0.000000 0.000000 0.000000 
0.136821 0.936999 0.074195 0.333937 5.696604 4.877171 10.439049 -0.463274 -14.180132 -3.625607 0.139100 16.135673 5.493171 13.618967 9.934969 0.000000 0.000000 0.000000 -8.425749 0.323806 -6.363571 5.003254 -0.787672 12.591789 -11.122674 -26.008189 5.983600 0.000000 0.000000 0.000000 6.755653 -0.852825 6.548613 -6.563007 2.159054 -25.331812 -0.700408 12.915678 28.098799 8.253565 0.192605 -30.681347 0.000000 0.000000 0.000000 -21.797709 -3.460657 -4.564013 -54.512319 -2.514820 -6.641947 6.198736 -28.519057 -1.229839 0.000000 0.000000 0.000000 30.711329 -9.549216 -2.226943 60.129495 7.528352 -5.695584 1.224566 34.922106 3.945837 0.000000 0.000000 0.000000 
0.134401 0.936218 0.074917 0.286475 5.850202 4.961177 10.546744 -0.465631 -14.443703 -3.521866 0.108293 16.151469 5.366576 13.413449 9.849520 0.000000 0.000000 0.000000 -8.017420 0.338633 -6.332400 4.829768 -0.748822 12.434804 -11.230857 -26.291213 5.695204 0.000000 0.000000 0.000000 6.705392 -0.853599 6.569271 -6.508518 2.144110 -25.400928 -0.699630 13.328338 27.894788 7.972391 0.377792 -30.270787 0.000000 0.000000 0.000000 -21.519885 -3.825342 -4.456507 -53.790363 -2.321978 -6.568816 5.319474 -29.186317 -1.089499 0.000000 0.000000 0.000000 30.639223 -9.269674 -1.834193 60.242838 7.557091 -5.681502 2.167565 35.348555 4.314932 0.000000 0.000000 0.000000 
